<?xml version="1.0" encoding="UTF-8" standalone="no"?>
<!-- Created with Inkscape (http://www.inkscape.org/) -->

<svg
   xmlns:dc="http://purl.org/dc/elements/1.1/"
   xmlns:cc="http://creativecommons.org/ns#"
   xmlns:rdf="http://www.w3.org/1999/02/22-rdf-syntax-ns#"
   xmlns:svg="http://www.w3.org/2000/svg"
   xmlns="http://www.w3.org/2000/svg"
   xmlns:sodipodi="http://sodipodi.sourceforge.net/DTD/sodipodi-0.dtd"
   xmlns:inkscape="http://www.inkscape.org/namespaces/inkscape"
   width="744.09448819"
   height="1052.3622047"
   id="svg2"
   version="1.1"
   inkscape:version="0.48.3.1 r9886"
   sodipodi:docname="veracitor_logo.svg">
  <defs
     id="defs4">
    <filter
       inkscape:collect="always"
       id="filter3883">
      <feGaussianBlur
         inkscape:collect="always"
         stdDeviation="2.2204688"
         id="feGaussianBlur3885" />
    </filter>
  </defs>
  <sodipodi:namedview
     id="base"
     pagecolor="#ffffff"
     bordercolor="#666666"
     borderopacity="1.0"
     inkscape:pageopacity="0.0"
     inkscape:pageshadow="2"
     inkscape:zoom="2.8"
     inkscape:cx="-39.105905"
     inkscape:cy="634.53163"
     inkscape:document-units="px"
     inkscape:current-layer="layer1"
     showgrid="false"
     inkscape:window-width="1280"
     inkscape:window-height="962"
     inkscape:window-x="-6"
     inkscape:window-y="-6"
     inkscape:window-maximized="1">
    <inkscape:grid
       type="xygrid"
       id="grid2985" />
  </sodipodi:namedview>
  <metadata
     id="metadata7">
    <rdf:RDF>
      <cc:Work
         rdf:about="">
        <dc:format>image/svg+xml</dc:format>
        <dc:type
           rdf:resource="http://purl.org/dc/dcmitype/StillImage" />
        <dc:title></dc:title>
      </cc:Work>
    </rdf:RDF>
  </metadata>
  <g
     inkscape:label="Layer 1"
     inkscape:groupmode="layer"
     id="layer1">
    <path
       style="fill:#ffffff;stroke:#000000;stroke-width:1px;stroke-linecap:butt;stroke-linejoin:miter;stroke-opacity:1;fill-opacity:1"
       d="m 152.96875,556.84375 -3.875,14.46875 28.28125,49 15.96875,0 28.28125,-49 -3.875,-14.46875 -14.5,3.875 2.59375,9.65625 -9.65625,2.59375 2.5625,9.65625 -9.65625,2.59375 2.59375,9.65625 -6.34375,11 -6.34375,-11 2.59375,-9.65625 -9.65625,-2.59375 2.59375,-9.65625 -9.65625,-2.59375 2.59375,-9.65625 z"
       id="path2987"
       inkscape:connector-curvature="0"
       sodipodi:nodetypes="cccccccccccccccccccc"
       inkscape:export-filename="C:\Users\John\Desktop\veracitor_logo.png"
       inkscape:export-xdpi="57.078846"
       inkscape:export-ydpi="57.078846" />
    <path
       style="fill:none;stroke:#000000;stroke-width:1px;stroke-linecap:butt;stroke-linejoin:miter;stroke-opacity:1"
       d="m 235,522.36218 15,0 0,10 10,0 0,10 10,0 0,10 15,15 -10,10 -40,-40 z"
       id="path2987-1"
       inkscape:connector-curvature="0"
       sodipodi:nodetypes="ccccccccccc" />
    <path
       style="fill:#ffffff;fill-opacity:1;stroke:#000000;stroke-width:1px;stroke-linecap:butt;stroke-linejoin:miter;stroke-opacity:1"
       d="m 154,664.36218 c -6,-2 -12,8 -8.25,14 l 28.28125,49 c 3.96875,6 11.96875,6 15.96875,0 l 28.28125,-49 c 3.71875,-6 -2.28125,-16 -8.28125,-14 l -10.09375,3.40625 2.59375,9.65625 -9.65625,2.59375 2.5625,9.65625 -9.65625,2.59375 2.59375,9.65625 -6.34375,11 -6.34375,-11 2.59375,-9.65625 -9.65625,-2.59375 2.59375,-9.65625 -9.65625,-2.59375 2.59375,-9.65625 z"
       id="path2987-0"
       inkscape:connector-curvature="0"
       sodipodi:nodetypes="cccccccccccccccccccc"
       inkscape:export-filename="C:\Users\John\Desktop\veracitor_logo.png"
       inkscape:export-xdpi="59.769661"
       inkscape:export-ydpi="59.769661" />
    <path
       style="fill:#ffffff;fill-opacity:1;stroke:#000000;stroke-width:1px;stroke-linecap:butt;stroke-linejoin:miter;stroke-opacity:1"
       d="m 313.78712,651.17024 c -4.19469,-4.73335 -14.39258,0.92379 -14.14716,7.99501 l -0.0251,56.57586 c 0.43484,7.18067 7.36182,11.18279 13.8269,7.98863 l 49.00096,-28.27959 c 6.22156,-3.33487 6.02898,-14.99519 -0.16679,-16.26503 l -10.44392,-2.10019 -2.58483,9.65864 -9.65864,-2.58483 -2.6119,9.643 -9.65864,-2.58483 -2.58484,9.65864 -10.99579,6.35103 0.0101,-12.69815 7.07655,-7.06351 -7.06351,-7.07655 7.07654,-7.0635 -7.06351,-7.07655 7.07654,-7.06352 z"
       id="path2987-0-0"
       inkscape:connector-curvature="0"
       sodipodi:nodetypes="cccccccccccccccccccc"
       inkscape:export-filename="C:\Users\John\Desktop\veracitor_logo.png"
       inkscape:export-xdpi="52.911278"
       inkscape:export-ydpi="52.911278" />
    <path
       style="fill:#eeeeee;fill-opacity:1;stroke:none"
       d="m 97.60456,637.93614 c -7.997268,2.03118 -15.483444,2.35069 -31.715375,3.47212 -1.394433,0.0963 -7.275651,-2.07325 -12.41346,-0.13918 -5.714841,2.15128 -5.925571,8.13405 -6.573461,8.98899 -9.329406,12.31091 -6.219382,19.70237 -2.790657,25.50979 4.555705,7.71624 17.990653,14.23722 20.323535,30.79577 2.638389,18.72701 -68.6141514,30.4006 -42.615028,30.38253 l 62.298245,-0.0433 c 4.331492,-0.003 8.241117,-15.71758 5.774157,-30.30638 -1.621987,-9.5919 -9.15034,-18.58368 -12.177258,-23.54743 -3.72606,-6.11024 43.102482,-16.07818 39.440992,-23.54902 -0.17511,-0.49542 -0.58055,-0.71313 -0.97321,-0.83036 l -2.42796,-1.20406 -1.75508,2.97192 -4.5414,-1.59438 -3.21812,3.40117 -4.606597,-1.74619 -3.912595,3.27617 -3.995558,-2.1461 -3.970654,2.90752 -3.161326,-2.34819 -3.90625,2.15625 c -0.627678,-0.0504 -1.974485,-1.03277 -2.791595,-1.92008 -0.81711,-0.88731 2.955481,-3.00725 3.505903,-3.39554 l 3.183059,0.81504 2.508883,-3.90562 0.09375,-0.0312 4.688135,1.49239 2.436865,-4.52364 0,-0.0312 0.03125,0 6.15625,1.6561 2.99682,-4.77491 4.65498,1.40689 2.44449,-3.58296 3.16006,1.13008 1.16386,-3.7876 c -0.17338,-3.36911 -1.20126,-7.85398 -3.16575,-9.01066 -1.3841,-0.81495 -10.28903,1.0747 -14.1499,2.0553 z"
       id="path2988"
       inkscape:connector-curvature="0"
       sodipodi:nodetypes="cssssssssscccccccccccczccccccccccccccssc"
       inkscape:export-filename="C:\Users\John\Desktop\mysite\static\images\veracitor_logo_2.png"
       inkscape:export-xdpi="62.259716"
       inkscape:export-ydpi="62.259716" />
    <path
       style="fill:#eeeeee;fill-opacity:1;stroke:none"
       d="m 105.51587,482.19853 c -7.997269,2.03118 -15.483449,2.35069 -31.715378,3.47212 -1.394433,0.0963 -7.275651,-2.07325 -12.41346,-0.13918 -5.714841,2.15128 -5.925571,8.13405 -6.573461,8.98899 -9.329406,12.31091 -6.219382,19.70237 -2.790657,25.50979 4.555705,7.71624 17.990653,14.23722 20.323535,30.79577 2.638389,18.72701 -68.6141506,30.4006 -42.615028,30.38253 l 62.29824,-0.0433 c 4.3315,-0.003 8.241119,-15.71758 5.77416,-30.30638 -1.62199,-9.5919 -9.15034,-18.58368 -12.17726,-23.54743 -3.72606,-6.11024 43.102479,-16.07818 39.440989,-23.54902 -0.17511,-0.49542 -0.58055,-0.71313 -0.97321,-0.83036 l -2.42795,-1.20406 -1.75508,2.97192 -4.5414,-1.59438 -3.21812,3.40117 -4.6066,-1.74619 -3.9126,3.27617 -3.995549,-2.1461 -3.97066,2.90752 -3.16132,-2.34819 -3.90625,2.15625 c -0.62768,-0.0504 -1.97449,-1.03277 -2.7916,-1.92008 -0.81711,-0.88731 2.95548,-3.00725 3.5059,-3.39554 l 3.18306,0.81504 2.50889,-3.90562 0.0937,-0.0312 4.68813,1.49239 2.436869,-4.52364 0,-0.0312 0.0312,0 6.15625,1.6561 2.99682,-4.77491 4.65498,1.40689 2.44449,-3.58296 3.16006,1.13008 1.16386,-3.7876 c -0.17338,-3.36911 -1.20126,-7.85398 -3.16575,-9.01066 -1.3841,-0.81495 -10.28903,1.0747 -14.1499,2.0553 z"
       id="path2988-1"
       inkscape:connector-curvature="0"
       sodipodi:nodetypes="cssssssssscccccccccccczccccccccccccccssc"
       inkscape:export-filename="C:\Users\John\Desktop\mysite\static\images\veracitor_logo_2.png"
       inkscape:export-xdpi="62.259716"
       inkscape:export-ydpi="62.259716" />
    <rect
       style="fill:#eeeeee;fill-opacity:1;stroke:none"
       id="rect3887"
       width="174.64285"
       height="142.5"
       x="-171.07143"
       y="344.86218" />
    <path
       style="opacity:0.38800001;fill:#000000;fill-opacity:1;stroke:none;filter:url(#filter3883)"
       d="m -175.34375,353.0625 0,136.4375 159.625,0 0,-136.4375 z M -49.375,372.46875 c 1.089802,-0.0779 1.903975,-0.0162 2.25,0.1875 1.96449,1.15668 2.98287,5.63089 3.15625,9 l -1.15625,3.78125 -3.15625,-1.125 -2.4375,3.59375 -4.65625,-1.40625 -3,4.75 -6.15625,-1.65625 -0.03125,0 0,0.0312 -2.4375,4.53125 -4.6875,-1.5 -0.09375,0.0312 -2.5,3.90625 -3.1875,-0.8125 c -0.55042,0.38829 -4.31711,2.51894 -3.5,3.40625 0.81711,0.88731 2.15357,1.85585 2.78125,1.90625 l 3.90625,-2.15625 3.15625,2.375 3.96875,-2.9375 4,2.15625 3.90625,-3.28125 4.625,1.75 3.21875,-3.40625 4.53125,1.59375 1.75,-2.96875 2.4375,1.21875 c 0.39266,0.11723 0.79364,0.31708 0.96875,0.8125 3.66149,7.47084 -43.16356,17.45226 -39.4375,23.5625 3.02692,4.96375 10.56551,13.93935 12.1875,23.53125 2.466959,14.5888 0.55025,30.3095 -3.78125,30.3125 l -2.1194,24.72864 -85.07793,-5.131 0.45626,-24.82085 c -7.4277,-0.69619 67.691959,-6.39353 65.05357,-25.12054 -2.33288,-16.55855 -15.75679,-23.06501 -20.3125,-30.78125 -3.42873,-5.80742 -6.54816,-13.18909 2.78125,-25.5 0.64789,-0.85494 0.84766,-6.84872 6.5625,-9 5.13781,-1.93407 11.011817,0.2213 12.40625,0.125 16.231929,-1.12143 23.721481,-1.43757 31.71875,-3.46875 2.895652,-0.73545 8.636843,-1.98513 11.90625,-2.21875 z"
       id="rect3778"
       inkscape:connector-curvature="0"
       sodipodi:nodetypes="cccccccccccccccccccccsccccccccccccssccccsssscscc" />
    <path
       style="fill:#000000;fill-opacity:1;stroke:none"
       d="m -152.07589,358.79464 0,112.5 7.25,0 c -2.2496,-2.66941 50.52767,-13.58332 48.249999,-29.75 -2.33288,-16.55855 -15.788049,-23.09626 -20.343749,-30.8125 -3.42873,-5.80742 -6.51691,-13.18909 2.8125,-25.5 0.64789,-0.85494 0.84766,-6.84872 6.5625,-9 5.13781,-1.93407 11.011819,0.25255 12.406248,0.15625 16.231929,-1.12143 23.721482,-1.43757 31.71875,-3.46875 3.86087,-0.9806 12.77215,-2.87745 14.15625,-2.0625 1.96449,1.15668 2.98287,5.63089 3.15625,9 l -1.15625,3.8125 -3.15625,-1.15625 -2.4375,3.59375 -4.65625,-1.40625 -3,4.78125 -6.15625,-1.65625 -0.03125,0 0,0.0312 -2.4375,4.53125 -4.6875,-1.5 -0.09375,0.0312 -2.5,3.90625 -3.1875,-0.8125 c -0.55042,0.38829 -4.31711,2.48769 -3.5,3.375 0.81711,0.88731 2.15357,1.8871 2.78125,1.9375 l 3.90625,-2.15625 3.15625,2.34375 3.96875,-2.90625 4,2.15625 3.90625,-3.28125 4.625,1.75 3.21875,-3.40625 4.53125,1.59375 1.75,-2.96875 2.4375,1.1875 c 0.39266,0.11723 0.79364,0.34833 0.96875,0.84375 3.66149,7.47084 -43.16356,17.42101 -39.4375,23.53125 3.02692,4.96375 10.53426,13.9706 12.15625,23.5625 2.18868,12.94315 -0.621266,26.76141 -4.3125,29.71875 l 41.75,0 0,-112.5 -118.374998,0 z"
       id="rect3839"
       inkscape:connector-curvature="0"
       sodipodi:nodetypes="cccsssscssccccccccccccccsccccccccccccssccccc"
       inkscape:export-xdpi="63.999966"
       inkscape:export-ydpi="63.999966"
       inkscape:export-filename="C:\Users\John\Desktop\mysite\static\images\veracitor_logo_2.png" />
  </g>
</svg>
